# xmcd CD database file
#
# Track frame offsets:
#	150
#	4960
#	40740
#	73350
#	105975
#	162940
#	203385
#	237260
#	289200
#
# Disc length: 4285 seconds
#
# Revision: 0
# Processed by: cddbd v1.5PL3 Copyright (c) Steve Scherf et al.
# Submitted via: CDex 1.50beta10
#
DISCID=7510bb09
DTITLE=Billy Bang - COMMANDMENT (for the sculture of Alain Kirili)
DYEAR=1997
DGENRE=Jazz
TTITLE0=intro
TTITLE1=pieta
TTITLE2='bama swing
TTITLE3=commendment
TTITLE4=daydreams
TTITLE5=swing low sweet chariot (trad)
TTITLE6='bama swing again
TTITLE7=they plan to leave (sun ra)
TTITLE8=music for the love of it (lawrence douglas "butch" morris
EXTD=YEAR: 1997
EXTT0=
EXTT1=
EXTT2=
EXTT3=
EXTT4=
EXTT5=
EXTT6=
EXTT7=
EXTT8=
PLAYORDER=
